<?xml version="1.0" encoding="utf-8"?>
<!-- Generator: Adobe Illustrator 18.1.1, SVG Export Plug-In . SVG Version: 6.00 Build 0)  -->
<svg version="1.1" id="Calque_1" xmlns="http://www.w3.org/2000/svg" xmlns:xlink="http://www.w3.org/1999/xlink" x="0px" y="0px"
	 viewBox="0 0 30 30" enable-background="new 0 0 30 30" xml:space="preserve">
<g>
	<g>
		<g>
			<path fill="#8A201D" d="M16.3,16.6v4.9h-3.7v-4.9H8.4v-3.1h4.2V8.7h3.7v4.8h4.2v3.1H16.3z"/>
		</g>
	</g>
	<g>
		<path fill="#8A201D" d="M22.6,26.1c0.3,0,0.5,0,0.8,0c0.4-0.2,0.9-0.5,1.5-0.8c0.5-0.3,0.9-0.6,1.2-0.6c0.1,0.1-0.5,1.4-0.8,1.5
			c-1,0.8-1.9,1.1-2.8,1.3c-0.9,0.2-1.8,0.4-3,0.7c-0.1,0-0.3,0.1-0.6,0.3c-0.3,0.2-0.6,0.4-1,0.6c0,0,0.2,0,0.5,0
			c-1,0.6-2.7,0.6-4,0.7c0.3,0.1,0.3,0.1,0.5,0.2c-0.3-0.1-0.6-0.2-1-0.3c-0.4-0.1-0.8-0.1-1.2-0.2c-0.4-0.1-0.9-0.1-1.3-0.2
			c-0.4-0.1-0.9-0.2-1.3-0.3c-0.3-0.2-0.5-0.3-0.7-0.4c-1.4-0.4-2.6-1.2-4.1-2.1C4.7,26,4,25.4,3.4,24.7c-0.6-0.7-1.2-1.6-1.7-2.4
			c-0.8-1.5-1.2-3.3-1.4-5c-0.2-1.7-0.2-3.4-0.2-5c0-0.3,0.1-0.6,0.2-1c0.1-0.2,0.1-0.4,0.2-0.6c0.1-0.2,0.2-0.4,0.4-0.6
			C0.7,9,1.3,7.6,2.1,6.4C2.9,5.1,4.2,4,5.3,3.2c0.8-0.6,1.6-0.7,2-0.6C7.5,2.3,7.8,2.2,8.1,2c0.3-0.2,0.5-0.4,0.8-0.5
			c0.6-0.3,1.2-0.6,1.8-0.8C12,0.2,13.4,0,14.8,0c3.5,0,7.2,1.3,9.8,4.1c0.4,0.4,1.1,1.1,1.6,1.4l0.3,0.7c1.3,1.8,2.5,3.6,2.8,5.6
			c0.1,0.7,0,1.2,0,1.6c-0.1,0.4-0.2,0.7-0.4,0.9c-0.3,0.4-0.7,0.6-1.1,0.7c-0.3-1.3-0.9-2.4-1.6-3.6c-0.7-1.1-1.5-2.3-2.3-3.8
			c-0.4-0.9-1.7-1.7-2.7-2.3c-0.2-0.1-0.5-0.2-0.7-0.4c-0.2-0.1-0.4-0.3-0.7-0.4c-0.2-0.1-0.4-0.2-0.7-0.3c-0.2-0.1-0.5-0.1-0.7,0
			c-0.1-0.1-0.3-0.3-0.4-0.4c-0.2-0.1-0.4-0.2-0.6-0.4c-0.4-0.3-1-0.4-1.6-0.6c-1.2-0.3-2.6-0.2-3.7,0.1c-0.2,0,0-0.1-0.3-0.1
			c-1.5,0.7-3,1.5-4.4,2.5C5.9,6.6,4.7,8,4,9.6c-0.2,0.4-0.4,0.8-0.5,1.3c-0.1,0.2-0.2,0.5-0.2,0.7c-0.1,0.2-0.1,0.5-0.2,0.7
			c-0.1,0.2-0.1,0.5-0.1,0.8c0,0.3-0.1,0.5-0.1,0.8c0,0.5,0,1.1,0.1,1.6c0,0.1,0,0.4,0,0.7c0,0.3,0,0.7,0.1,1
			c0.1,0.2,0.2,0.4,0.3,0.6c0.1,0.4,0.2,0.8,0.3,1.1c0.1,0.2,0.1,0.4,0.2,0.6C3.9,19.7,4,19.9,4.1,20c0.1,0.2,0.2,0.3,0.2,0.5
			c0.1,0.2,0.2,0.3,0.3,0.5c0.2,0.3,0.3,0.6,0.4,0.9c0.2,0.3,0.3,0.6,0.5,0.8c0.2,0.3,0.4,0.5,0.6,0.7c0.4,0.4,0.9,0.8,1.3,1.2
			c0.6,0.6,1.7,1.2,2.7,1.6c0.3,0.1,0.5,0.2,0.8,0.3c0.3,0.1,0.5,0.2,0.8,0.3c0.5,0.2,0.9,0.3,1.3,0.5c0.2,0.1,0.8,0.1,1.2,0.1
			c0.2,0.1,0.4,0.2,0.6,0.2c0.4,0,0.7-0.3,1.1-0.4c1.3-0.1,2.8-0.5,4-1c0.6-0.2,1.2-0.5,1.7-0.7c0.5-0.2,1-0.4,1.4-0.4
			C22.8,25.5,22.1,26.1,22.6,26.1z"/>
		<path fill="#8A201D" d="M29.8,16c0.1,0.1,0.2-0.4,0.2-0.7c-0.1,0.3-0.3,0.4-0.5,1l0.1-0.9c-0.3-0.5-0.1,0.9-0.2,0.3
			c0.1-0.5,0.1-0.9,0.3-0.6c-0.1,0.1,0,0.3-0.1,0.6c0.2,0.1,0.3-0.4,0.5-0.7l-0.1,1.4L29.8,16z"/>
		<path fill="#8A201D" d="M28.9,19.1l0.1-0.3c-0.1-0.2-0.2,0.1-0.4,0.3c0.5-1.1,0.4,0.1,0.8-0.6C29.3,18.5,29,19.2,28.9,19.1z"/>
		<path fill="#8A201D" d="M28.7,17.4c0.3-0.5,0.2-1,0.5-1.1c0,0-0.1,0.3-0.2,0.7c-0.1,0.3-0.3,0.7-0.3,0.7L28.7,17.4z"/>
		<path fill="#8A201D" d="M24.7,25.4c-0.2,0.3-0.1,0.2-0.6,0.6c0,0,0.2-0.2,0.4-0.3C24.5,25.6,24.6,25.5,24.7,25.4
			C24.8,25.4,24.8,25.3,24.7,25.4L24.7,25.4z"/>
		<path fill="#8A201D" d="M7.1,27.2c0.2,0.2,0.3,0.4,0.6,0.6c0.2,0.2,0.5,0.4,0.9,0.6c-0.4-0.2-0.7-0.4-1-0.7
			C7.3,27.5,7.1,27.2,7.1,27.2z"/>
		<path fill="#8A201D" d="M2.5,20.6c0.1,0,0-0.3,0.2,0c0,0.2-0.3,0.1,0.1,0.5L2.5,20.6z"/>
		<path fill="#8A201D" d="M2.7,19.8l0.1-0.4C2.8,19.4,2.7,19.6,2.7,19.8z"/>
		<path fill="#8A201D" d="M20.9,28.9L20.9,28.9c-0.1,0-0.2,0-0.2,0.1C20.7,28.9,20.8,28.9,20.9,28.9z"/>
		<path fill="#8A201D" d="M19.5,29.2c0,0,0.2,0,0.5-0.1c0.2,0,0.5-0.1,0.5-0.1c0.1-0.1,0.1-0.1,0.2-0.1
			C20.1,29.2,20.2,28.9,19.5,29.2z"/>
		<path fill="#8A201D" d="M20.7,28.8l0.1,0c0.3-0.3,0.6-0.3,1-0.4c0.3-0.1,0.7-0.3,1.2-0.6c-0.4,0.1-0.8,0.3-1.2,0.5
			C21.3,28.5,21,28.7,20.7,28.8z"/>
		<path fill="#8A201D" d="M21.4,28.2c0,0,0.1-0.1,0.1-0.1c0.1-0.1,0.1-0.1,0.1-0.1c0.3-0.1,0.3,0,0.3,0l0.5-0.3c0-0.1-0.3,0-0.8,0.2
			c-0.4,0.2-1,0.4-1.2,0.5L21.4,28.2z"/>
		<polygon fill="#8A201D" points="24.5,23.5 24.5,23.5 24.5,23.5 		"/>
		<path fill="#8A201D" d="M23.1,24.2l0.2,0.3c0.5-0.5,0.7-0.4,1.2-1l0,0c-0.2,0-0.4,0.1-0.7,0.3c-0.1,0.1-0.2,0.2-0.3,0.3
			C23.4,24.1,23.2,24.2,23.1,24.2z"/>
		<path fill="#8A201D" d="M18.4,29.2c0.4-0.1,0.7-0.2,1-0.3c0.2-0.1,0.4-0.2,0.5-0.4c0,0-0.3,0.1-0.7,0.2c-0.3,0.1-0.7,0.2-0.7,0.2
			C19,28.9,18.5,29.1,18.4,29.2z"/>
		<path fill="#8A201D" d="M17.1,28.8c0,0,0.2,0,0.3-0.1c0.2,0,0.3-0.1,0.3-0.1l-0.3,0C17.4,28.7,17.3,28.7,17.1,28.8z"/>
		<path fill="#8A201D" d="M17.4,28.6c0-0.1-0.1-0.1-0.3-0.1C17.1,28.5,17.4,28.6,17.4,28.6z"/>
		<path fill="#8A201D" d="M18.6,28c-0.5-0.1-0.3,0.1-1,0.3C17.5,28.5,18.2,28.1,18.6,28z"/>
		<polygon fill="#8A201D" points="15.7,28.5 15.4,28.3 15.4,28.5 		"/>
		<path fill="#8A201D" d="M10.2,28.9c0.4,0,0.3-0.1,0.1-0.2c-0.2-0.1-0.4-0.3-0.5-0.3L10.2,28.9z"/>
		<path fill="#8A201D" d="M14.9,27.9l0.2,0.2l0.1-0.1c0.2,0,0.4,0,0.6,0.1C15.9,27.8,15.2,28,14.9,27.9z"/>
		<path fill="#8A201D" d="M12.2,28.3c0,0-0.2-0.1-0.3-0.1c-0.2-0.1-0.3-0.2-0.3-0.2"/>
		<path fill="#8A201D" d="M16.3,26.9c0-0.1-0.9-0.3,0.1-0.3c-0.4,0-0.9,0.1-0.6-0.1c-0.6,0,0,0.3-0.4,0.4
			C15.7,26.7,16,26.9,16.3,26.9z"/>
		<path fill="#8A201D" d="M14.7,26.8c-0.3,0-0.7-0.2-0.9-0.1C14.2,26.8,14.5,27,14.7,26.8z"/>
		<path fill="#8A201D" d="M14.5,26.2c0,0,0.1,0.1,0.2,0.1c0.1,0,0.2,0.1,0.2,0.1l-0.3-0.2C14.6,26.2,14.5,26.2,14.5,26.2z"/>
		<line fill="#8A201D" x1="8.1" y1="26.2" x2="7.9" y2="26.5"/>
		<path fill="#8A201D" d="M12.8,26.1c0,0,0.3,0,0.5,0.1c0.3,0,0.5,0,0.5,0s-0.2,0-0.5-0.1c-0.2-0.1-0.4-0.1-0.4-0.1
			c-0.6,0.1-0.3,0.2,0.1,0.3C12.9,26.2,12.8,26.2,12.8,26.1z"/>
		<path fill="#8A201D" d="M13.9,26.6l0.3-0.1c0-0.1-0.5-0.1-0.9-0.2C13.6,26.5,13.8,26.5,13.9,26.6z"/>
		<path fill="#8A201D" d="M13.3,26.4c-0.1,0-0.2-0.1-0.3-0.1C13.1,26.3,13.2,26.4,13.3,26.4z"/>
		<path fill="#8A201D" d="M5.6,24.6c0,0,0.2,0.2,0.4,0.4c0.2,0.2,0.4,0.4,0.4,0.4C6.1,25.1,5.9,24.8,5.6,24.6z"/>
		<path fill="#8A201D" d="M12.1,25.7l-0.1,0l-0.1,0.2C12.2,25.9,12.1,25.7,12.1,25.7z"/>
		<path fill="#8A201D" d="M11.1,24.9c-0.2-0.2-0.7-0.2-0.9-0.3c0.2,0.3,0.6,0.4,0.9,0.6C10.7,24.9,11,24.9,11.1,24.9z"/>
		<path fill="#8A201D" d="M10.1,24.1c0,0,0.2,0.1,0.4,0.2c0.1,0.1,0.2,0.1,0.3,0.1c0.1,0,0.1,0,0.1,0c0-0.2-0.1-0.2-0.3-0.2
			C10.5,24.2,10.3,24.2,10.1,24.1z"/>
		<path fill="#8A201D" d="M9,23.6c-0.1,0-0.1,0.1-0.2,0c0,0.2,0.3,0.3,0.5,0.4L9,23.6z"/>
		<path fill="#8A201D" d="M15.8,27.7c-0.3,0-0.6,0.1-0.8,0.1c0.4,0,0.8,0.1,1.3,0.1C16.1,27.8,16,27.8,15.8,27.7z"/>
		<path fill="#8A201D" d="M28.6,8.6c-0.5-0.6-1.2-1.5-1.9-2.4c-0.4-0.4-0.7-0.8-1.1-1.2c-0.2-0.2-0.4-0.4-0.5-0.5
			c-0.2-0.2-0.3-0.3-0.5-0.4c-0.9-0.9-2.2-1.6-3.5-2.2c-1.4-0.6-2.9-0.9-4.3-1l0-0.1c-0.3-0.1-0.6-0.1-0.9-0.2c-0.3,0-0.6,0-0.9-0.1
			c-0.6-0.1-1.3,0.1-2,0.1c-1.3,0.2-2.6,0.6-3.8,1l0.2,0.1c0.4-0.1,0.9-0.3,0.7,0C9.6,1.9,8.9,2.1,8.7,2.1L8.4,2.4
			C8.2,2.5,8.1,2.4,8,2.3C7.9,2.2,7.7,2.2,7.3,2.6C7.2,2.9,6.6,3.1,6.2,3.3C5.8,3.6,5.4,3.8,5.6,4C5.3,4,5.1,4.2,4.8,4.5
			C4.6,4.7,4.4,5,4.2,5.2l0.4,0C4.2,5.5,3.8,5.7,3.4,6C3.1,6.2,2.8,6.5,2.7,6.7c-0.7,1.1-1.5,2.6-1.8,4C0.5,10.9,1.4,9.3,0.8,10
			c-0.1,0.7-0.2,1.4-0.4,2.1c-0.1,0.7-0.3,1.5-0.3,2.3c-0.2,1.6-0.1,3.4,0.6,4.9c0-0.1,0-0.4,0.1-0.2c0,0.3,0.1,0.7,0.3,1.1
			c0.1,0.4,0.4,0.8,0.5,1.3c0.1-0.1,0-0.5-0.2-0.9C1.1,20.3,1,19.9,1,19.6c0.3,0.1,0.3,0.1,0.3,0.3c0,0.2,0,0.5,0.3,1.1
			c0-0.1,0-0.3,0-0.3c0.6,1.1-0.1,0.6,0.5,1.4c0,0,0-0.1-0.1-0.3c0-0.1,0-0.3,0-0.3c0.4,0.8,0.2,0.2,0.8,1.1c-0.3,0-0.2,0.6-0.1,0.8
			c0.2,0,0.7,0.9,0.8,0.6c0.2,0.7,0.5,1,0.8,1.2c0.3,0.2,0.6,0.5,0.9,1.1c0.3,0.1,0.2-0.1,0.1-0.2c-0.1-0.2-0.2-0.4-0.2-0.4
			c1.1,0.7,0.1,0.5,0.4,0.8c0.4,0.2,1.8,1,2.4,1.5L8.2,28c0.2,0.2,0.5,0.4,0.8,0.5c0.3,0.2,0.6,0.3,0.9,0.5c0.6,0.3,1.1,0.5,1.3,0.7
			c0.5-0.2-0.3-0.4-1.1-0.6c-0.1-0.2,0.7-0.1,1,0.1c-0.2-0.1-0.2-0.2-0.4-0.1c0-0.2,0.5,0.1,0.7,0.1c0.6,0.2,0.5,0.2,0.3,0.2
			c-0.2,0-0.5-0.1-0.3,0.1c0.5,0.1,1.7,0.3,1.2-0.1c0.5,0.1,0.6,0.1,0.6,0.2c0,0.1,0,0.2,0.3,0.3c-0.4-0.1-0.7-0.1-0.9-0.1
			c-0.3,0-0.5,0-0.8-0.2c-0.2,0.1-0.2,0.2,0.1,0.3c0.9,0.1,2.6,0.4,2.6,0.1c0,0,0.1,0,0.2,0.1c0.1,0,0.2,0.1,0.2,0.1l0.4-0.2l0.2,0
			c-0.2-0.1-0.5-0.2-0.8-0.3c-0.3-0.1-0.6-0.2-0.7-0.4c-0.1-0.1,0.5,0,0.8-0.1l0.2,0.2c0.4,0,0.5-0.1,0.7-0.2
			c0.2-0.1,0.4-0.2,0.9-0.3c-0.6,0.4,1.2,0.3,1.9,0.3c0.6-0.7-0.2-0.4,0.3-1c0.3-0.1,0.8-0.3,1.2-0.5c0.4-0.2,0.9-0.4,1.3-0.6
			c-0.9,0.5-0.7,0.4-0.3,0.4c0.3,0,0.7-0.1,0,0.4c0.4-0.1,0.6-0.3,0.9-0.5c0.5,0.2-0.3,0.6,0.3,0.6l0-0.3c0.3,0,0.5,0,0.8-0.1
			c0.3-0.1,0.6-0.2,1.1-0.5c0-0.2,0.3-0.7,0.7-0.9c0.2,0,0.4,0.1,1.1-0.7c0.5-0.9,0-0.6-0.7-0.2c-0.3,0.2-0.7,0.5-1,0.6
			c-0.3,0.2-0.6,0.3-0.8,0.2c-1.1,0.7-1.9,0.8-2.7,0.8c-0.4,0-0.8,0-1.3,0c-0.2,0-0.5,0-0.8,0.1c-0.1,0-0.3,0-0.4,0.1
			c-0.2,0-0.3,0-0.5,0.1c-0.2,0.1-0.3,0.2-0.4,0.3c-0.1,0.1-0.3,0.2-0.7,0.3c-0.3,0.3,0.1,0.3,0.6,0.3c0.5,0,1.1-0.1,1.4-0.1
			c-0.2,0.2-0.5,0.3-0.8,0.3l0.4,0.2c-1.4,0.5-0.9-0.3-2.1,0.1l0.3-0.1c0,0-0.2,0-0.4,0.1c-0.1,0-0.2,0-0.2,0.1c-0.1,0-0.1,0-0.1,0
			l0.2,0c-0.4,0-0.6,0.3-1.3,0.2l0.6-0.2c-0.4,0.2-0.5-0.2-1-0.1c0.3-0.1,0.4-0.2,0.6-0.3c-0.8-0.2-1.5-0.2-2.2-0.4
			c-2.3-0.2-4.5-1.4-6-3c0,0.1,0.1,0.2,0.1,0.2c-0.4-0.2-0.5-0.5-0.5-0.7l-0.4-0.5l-0.3-0.5c-0.2-0.2-0.3-0.3-0.4-0.5
			c-0.1-0.2-0.3-0.3-0.4-0.5c-0.3-0.3-0.5-0.7-0.8-1.2c0.1-0.1,0.2-0.1,0.3,0c-0.2-0.3-0.4-0.5-0.3-0.1c-0.4-0.6-0.3-0.9-0.5-1.4
			c0,0,0,0.1,0.1,0.1c0.1,0.1,0.2,0.2,0.2,0.3c0.2,0.2,0.4,0.4,0.4,0.4c-0.1-0.5-0.4-0.3-0.6-0.9c-0.2-0.4-0.2-0.3-0.2-0.1
			c0,0.2,0.1,0.6-0.1,0.6c0,0-0.2-0.4-0.1-0.4c0,0-0.1,0.5-0.1,0.5c-0.2-0.4-0.2-0.8-0.2-1.1c0-0.3,0-0.5,0.1-0.7
			c0,0,0.1,0.6,0.1,0.6c0.2,0.1,0.1-0.2,0-0.5c-0.1-0.3-0.2-0.7-0.1-0.9l0,0.1c-0.2-0.9-0.1,0.2-0.3-0.4l0.1-1.2l-0.2,0.2
			c-0.1-0.3-0.1-0.8,0-1.4c0-0.3,0.1-0.6,0.2-0.9c0.1-0.3,0.1-0.6,0.2-0.8c0.1-0.3,0.1-0.7,0.1-1.1c0.1-0.4,0.1-0.8,0.2-1.2
			c-0.1,0.1-0.2,0.4-0.3,0.3c0.2-0.5,0.5-1.5,0.6-1c0,0,0.1-0.7,0.1-0.7c0.1-0.2,0.2-0.4,0.3-0.5L3.5,9.4c0,0,0,0,0-0.1
			c0-0.1,0.1-0.2,0.1-0.3c0.1-0.2,0.2-0.4,0.2-0.4c0,0,0.3-0.2,0.1,0.2c0.2-0.2,0.3-0.4,0.5-0.6C4.5,8,4.7,7.8,4.8,7.5
			C4.9,7.2,5.1,7,5.3,6.7C5.5,6.5,5.8,6.2,6.1,6L5.8,6.4c0.5-0.7,0.8-0.5,1.5-1.2L7,5.2c0.5-0.5,1.7-0.9,1.6-0.7
			C8.5,4,9,4.4,9.2,3.9l0.5,0.2c0.3-0.3,0.7-0.5,0.4-0.6c0.4,0,0.7-0.1,0.9-0.2c0.3-0.1,0.5-0.2,0.6-0.4c0,0,0,0,0,0l0,0l0,0
			c0.1-0.1,0.8-0.1,0.5-0.3C13.7,2.5,13,3,14.5,2.8l0.1-0.3c0.6,0.1,1.1,0,1.7,0c0.3,0,0.5,0,0.8,0c0.3,0,0.5,0,0.7,0l0,0.3
			c0.3,0,0.3,0,0.3-0.1c0-0.1,0.1-0.1,0.6,0c0.1,0.1,0.2,0.2,0.1,0.3c0.9,0.3,1.9,1,3,1.8c0,0-0.2,0-0.3-0.1
			c0.2,0.2,0.6,0.4,0.9,0.6c0.3,0.2,0.7,0.5,0.9,0.7c0.9,1.4,1.8,3.4,2.5,5.2c1.1,1.3,1.9,2.3,2.7,2.4c0.2-0.3,0.4-0.9,0.4-1.7
			c0-0.4,0-1-0.1-1.5c0-0.3-0.1-0.6-0.1-0.9C28.8,9.2,28.7,8.9,28.6,8.6z"/>
	</g>
</g>
</svg>
