<?xml version="1.0" encoding="utf-8"?>
<!-- Generator: Adobe Illustrator 18.1.1, SVG Export Plug-In . SVG Version: 6.00 Build 0)  -->
<svg version="1.1" id="Calque_1" xmlns="http://www.w3.org/2000/svg" xmlns:xlink="http://www.w3.org/1999/xlink" x="0px" y="0px"
	 viewBox="0 0 36 36" enable-background="new 0 0 36 36" xml:space="preserve">
<g opacity="0.66">
	<g>
		<g>
			<g>
				<path fill="#8A201D" d="M22.9,16.7L22.9,16.7l-0.1,0.1c1.2-0.2,0.9,0,0.6,0.3c0.4-0.1,0.7-0.1,0.9-0.1c-0.7,0.4,0,0.1,0.8,0.4
					c0-0.1-0.1-0.2,0.2-0.3c0,0,0.4,0.5,0.4,0.5c0.7-0.1,1.5-0.3,2-0.2c1.4-0.2,3.1,0,4.6,0.1c0.2-0.2,0.4-0.4,0.5-0.5
					c0.6,0,0.9,0.2,1,0.4c0.1,0,0.3-0.1,0.4-0.1c-0.1,0-0.3,0.1-0.4,0.1c0.1,0.2,0.1,0.4,0.1,0.5c0.2-0.1,0.4-0.2,0.6-0.2l0-0.8
					c0.1,0,0.2,0,0.4,0l-0.4-0.2l-0.4,0.2c-0.3,0.1-0.5,0-0.6-0.1c-0.1-0.2,0.2-0.3,0.3-0.4c0,0-0.2-0.1-0.3-0.2
					c-0.2-0.1-0.3-0.2-0.3-0.2c-1.1,0-0.6,1-1.6,0.5l0.3-0.2c-0.3-0.2-0.4-0.6-1.1-0.6c1.2-0.5-1.1-0.5,0.6-0.8
					c0.3-0.5,0-1.1-0.2-1.6c-0.2-0.5-0.3-1.1,0.3-1.9c-1.1,0.3-3.2,1.3-4.6,1.7c0.1-0.1,0.3-0.3,0.5-0.4l-0.7,0.1
					c0.1,0.1,0.2,0.2-0.2,0.5c-0.6,0-0.8,0.6-1.4,0.8c0,0-0.2,0-0.4,0c-0.2,0-0.4,0-0.4,0l-0.2,0.2c0,0.3-0.2,0.8-0.5,1.1
					C23.4,16.1,23.1,16.4,22.9,16.7L22.9,16.7z"/>
				<path fill="#8A201D" d="M15.7-8.4L15.8-7c-2.1,0.6-4.3,1.3-6.3,2.3c-2.1,1-4.1,2.1-6,3.6c-3.8,2.8-7.2,6.8-9.3,11.8
					c-0.2,0.6-0.5,1.3-0.7,1.9c-0.2,0.7-0.4,1.5-0.6,2.2L-7.3,16l-0.1,0.7l-0.1,0.7l0,0.2l0,0.6l0,0.5c-0.2,2.8,0.2,5.7,1,8.5
					c0.8,2.8,2.2,5.4,4,7.8c1.8,2.3,4,4.3,6.5,5.7c0,0-0.8,1-1.6,2c-0.8,1-1.6,2-1.6,2c3.9,0.7,7.8,1,11.4,0.4
					c0.4-0.1,1-0.1,1.5-0.2c0.5-0.1,1-0.2,1.5-0.3c0.2-0.1,0.5-0.1,0.7-0.2l0.4-0.2l0.8-0.5l0.4-0.3l0.2-0.1l0,0l0,0l0,0l0,0
					c0.7,0,0.2,0,0.4,0l0.1,0l0.1-0.1c0.4-0.2,0.7-0.4,1-0.6c0.7-0.4,1.3-0.9,1.9-1.5c0,0-0.5-0.1-1-0.3c-0.5-0.2-1-0.4-1-0.4
					c0.8-1.4,2-2.7,3.2-3.8c0.6-0.5,1.2-0.9,1.8-1.3c0.3-0.2,0.6-0.3,0.9-0.4c0.3-0.1,0.6-0.2,0.9-0.3l0.4,1.3
					c-0.7,0.5-1,0.7-1.1,0.9c-0.1,0.2,0,0.3,0.3,0.4c0.4,0.3,1.4,0.9,1.3,2.8L26.3,41l0.6,0.5l0.4-0.9c0.2,0.7,0.7,1.6,0.1,2.1
					c0,0,0.3-0.1,0.5-0.1c0.3-0.1,0.5-0.1,0.5-0.1c1.7,1.2,3,2.4,4.1,3.8c1.1,1.4,1.8,3,2.6,4.9c0.5-0.8-2.1-3.9,1.3-4.4l0.3,1.3
					c0,0,0.1-0.2,0.3-0.6c0.2-0.4,0.4-0.8,0.6-1.3c0.4-1,0.7-2,0.7-2s0.6,0.1,1.1,0.2c0.6,0.1,1.1,0.2,1.1,0.2
					c0.4-1.5,0.4-2.6,1.6-3.1l-1.7-2.1c2.2-1.5,3.5-4.3,4.5-6.9c1-2.8,1.7-5.4,3.2-7.7c-0.3-0.2-0.5-0.4-0.6-0.6
					c-0.1-0.2-0.2-0.5-0.1-0.8c0-0.5,0.2-1.1,0.4-1.8c0.1-0.3,0.2-0.7,0.3-1.1c0.1-0.2,0.1-0.4,0.1-0.6c0-0.4-0.2-0.8-0.7-1.3
					l-2.9,0.6c-1,0.5-1.6,0.8-2.1,2c-0.3,0.5-0.5,1.1-0.7,1.6c-0.2,0.5-0.4,1-0.6,1.6c-0.2,0.5-0.3,1.1-0.6,1.6
					c-0.2,0.5-0.4,1.1-0.7,1.6c-0.5,1-1.1,1.9-1.9,2.6l-1.2-0.9c0-0.9-0.9-1.9,0.1-2.4l-2.3-1.3c-2.3-0.7-3.4-0.8-3.8-0.5
					c-0.5,0.3-0.3,1,0,1.9c0.3,0.9,0.7,2,0.9,2.9c0.2,0.9,0.2,1.6-0.3,1.5c-1.8-0.1-2.4-1.5-2.8-2.5c-0.4-1.1-0.6-1.9-0.8-1.5
					c-0.7-1.9-2.3-2.6-3.7-3.4c-1.5-0.8-2.8-1.6-3.9-2.9c-1-1.1-1.7-1.9-1.9-2.4c-0.2-0.3-0.2-0.4-0.3-0.5c0-0.1,0,0,0,0
					c0,0,0-0.1,0,0c0,0,0,0.2,0,0.3l0,0.2l0,0.1l0,0l0,0l0,0c-0.8,0,1.1,0,0.9,0l0,0l0,0l0,0l-0.1,0c-0.6,0.1-1.1,0.1-1.6,0.1
					c0,0-0.1,0.1-0.1,0.1l0.1,0.1l0.1,0.3c0.1,0.2,0.1,0.3,0.2,0.5s0.1,0.3,0.1,0.5c0,0.1-0.1,0.2-0.1,0.3c-0.1,0.2-0.2,0.4-0.4,0.5
					c-0.1,0.1-0.2,0.2-0.3,0.2c-0.4,0.1-0.7-0.3-0.7-0.8c0-0.6,0.3-1.2,0.6-1.6c0.3-0.4,0.7-0.7,0.6-0.7c0.1,0,0,0-0.1,0
					c-0.2,0-0.5,0.1-0.8,0.1c-0.3,0-0.8,0-1.2,0c-0.4,0-0.8-0.1-1.2-0.2L13.5,18l-0.1,0l0,0l0,0c0-0.1,0,1.3,0,0.7l0,0l0,0l0,0
					l-0.1-0.2c-0.1-0.2-0.2-0.4-0.3-0.6c-0.1-0.2-0.1-0.4-0.1-0.6c0-0.2,0-0.5,0.1-0.4c0.3,0.1,0.6,0.1,1,0.2
					c0.5,0.1,1.2,0.4,2.2,0.5c0,0,0.1,0,0.3,0c0.1,0,0.4,0,0.6,0.1c0.2,0,0.4,0.1,0.6,0.2c0.1,0.1,0.2,0.1,0.2,0.1s0.1,0,0.1,0.1
					l0,0l0,0c0.1,0,0.1,0.1,0.1,0.1c0,0,0,0,0,0c0,0,0,0,0,0c0,0,0,0,0,0L18,18l-0.1-0.2c-0.6-0.8-0.8-2.1-0.4-2.7
					c0.1-0.1,0.1-0.4,0.1-0.8c0-0.3,0.1-0.7,0.2-1c0.1-0.3,0.1-0.4,0.2-0.1l0,0.1l0,0.1l0,0l0,0l0,0c-0.3,0,0.7,0-0.7,0l0,0l0,0l0,0
					c0.1,0.1,0.1,0.2,0.2,0.4c0.1,0.3,0.2,0.7,0.3,1.3c0.3,0.2,0.5,0.3,0.8,0.5c0.1,0.1,0.3,0.1,0.4,0.2l0.1,0l0,0c0,0,0,0-0.1,0.1
					c-0.1,0.1-0.2,0.1-0.3,0.1c0,0-0.1,0-0.1,0c0,0-0.1-0.1,0-0.1c0.1,0,0.2-0.2,0.3-0.4c0.2-0.2,0.4-0.4,0.5-0.6
					c0.2-0.2,0.5-0.4,0.7-0.7c0.3-0.2,0.6-0.4,0.9-0.5c0.3-0.1,0.6-0.2,0.9-0.3c0.3,0,0.5,0,0.7,0.1c0.9-1,2.2-1.8,2.4-2.6
					c-1,0.2-1.1-0.4-0.9-1.6c0.2-1.2,0.6-3,1.5-4.6l0.4,0.7c0,0,0.1-0.8,0.2-1.6c0-0.4,0.1-0.8,0.1-1.1c0-0.3,0-0.5,0-0.5
					s-0.3,0.2-0.7,0.3c-0.3,0.2-0.6,0.3-0.6,0.3C25,1.7,25.2,1,25.4,0.4c-0.5-0.9-0.9-2.3-1.4-3.7c-0.3-0.7-0.6-1.5-0.9-2.2
					c-0.4-0.7-0.9-1.4-1.5-2.1c-0.5,0.2-1,0.3-1.5,0.4c-0.3,0.1-0.6,0.2-1,0.1c-0.2,0-0.3-0.1-0.5-0.1l-0.1-0.1l-0.1,0l0,0l0,0
					c-0.2,0,0.4,0-0.4,0l0,0l0,0l0,0l0,0c-0.1,0-0.3-0.1-0.4-0.1C17-7.6,16.4-7.9,15.7-8.4z"/>
			</g>
		</g>
	</g>
</g>
</svg>
