<?xml version="1.0" encoding="utf-8"?>
<!-- Generator: Adobe Illustrator 18.1.1, SVG Export Plug-In . SVG Version: 6.00 Build 0)  -->
<svg version="1.1" id="Calque_1" xmlns="http://www.w3.org/2000/svg" xmlns:xlink="http://www.w3.org/1999/xlink" x="0px" y="0px"
	 viewBox="0 0 48 250" enable-background="new 0 0 48 250" xml:space="preserve">
<g>
	<path opacity="0.78" fill="#8A201D" d="M8.2,59.1l-0.2,1c-0.1-3.2,0.5-6.6,1.1-9.9C3.4,57.4-1.6,66,10.5,71.6
		c-6.4,0.6-9.4,7.6-7.8,7.8c1.2,1.5,2.1,2.9,2.9,4.4c-0.5-1-1-2.1-1.6-3.1c0.6,1,1.1,2,1.6,3.1c5,9.5,2.8,19.7,0.3,30.4
		c-1.2,5.9-2.6,21.9-4.5,28c-0.2,0.9-0.5,1.7-0.6,2.6c0.6-1.5,0.6-1.5,1.2-2.9c1.7,3.7,3.4,7,4.5,10.3c0.9-0.6,1.8-0.7,3.1-2
		l-0.6,1.6c2.7,1.5,2.6,5,3.7,6.6c-1.4-0.4-1.7,0.9-1.9,2.1l0.9-0.4c-0.6,4.3,0.6,9.3,0.4,13.1c0,0.5-0.5,0.9-1,1.2l1.1,3.7
		c-1.9-0.3-1.6,3.1-2.8,1.3c2.2,2.8,0.9,5.6,3.2,8.2c0.3,9.4,1.7,19.4,4.8,29.1l0.7-0.2c1.2,3.4,4.9,6.4,3.7,10.5
		c2.5,3,3.8,7.1,7.7,8.3c0.5,3.4,2.5,4.8,3.5,8.1c1.9-0.9,2.3,3.2,3.8,1.6c2.7-2.2,0.4-2.3,2.6-4.2l-0.7,0.1
		c2.9-8.8,4.6-17.6,5.5-26.5c-1.6-5.9-0.3-12.4-0.8-18.5c-0.7-6.6-2-13.8-3.6-19.5c-0.6-1.4,1.1-2.3,2-3.5
		c-0.9-5.2-0.2-11.9-1.3-17.8c0,0.1,0,0.2-0.1,0.3c-0.3-3.1,1.7-5.5,1.3-8.6c-0.6,0-0.6-0.5-0.9-0.7c2.6-0.5-5.3-18.1-3.9-19.1
		c-0.1-0.3-0.2-0.6-0.3-1c1.2-6.5,6.2-13.2,5.7-18.7c-1.2-1.2-2.3-2.6-3.6-3.6c1.1-1-1-1.2-0.7-2.4c5.2-3,3-4.8,1.2-3.2
		c-0.7-2.5-0.2-5-0.4-7.2c-0.4-1-0.8-2-1.2-3.1c-0.4-0.9,0.3-1.4,1.6-1.8c-0.7-2.2,0.5-1.6,1.1-3.9c1.8-0.6-2.9-5.9-2.3-6.5l0.3,0.4
		c0.3-2.7,3.8-4.5,4-7.2c1.3-7.4,0-15.4,0.6-22.2c-1.9-0.1,0.4,1.5-2.1,1.6c0.3-4,2.7-8.1,3-12.1c0.5-0.7,1.5-1.6,2.1-2
		c0.7-1.3-0.9-0.8-0.7-1.7l1.7-0.1c-1.4-1.4,1.9-2,1.2-3.3c-0.7-0.1-0.8-0.5-0.7-1c1.8,0-0.1-1.4,1.5-1.4l-0.1,0
		c0-0.3-0.1-0.5,0.2-0.8c-0.6-0.5-5.6-5.5-6.4-6l0.3-0.3c-0.1-0.7-1.4-1.1-1.7-0.6l0.1-0.9l0.1,0.1l0.1-0.9c0.2-0.2,1-0.4,1.8-0.1
		c-0.6-0.5-1-1.1-0.6-1.6c-1.1,1.4-2.7,3.2-4.5,4.7c-0.6-0.6,0.3-1.7,0.1-2.4c1.2-0.8,2.2-2.4,3-3.7c-0.1-0.3-2.1-0.5-1.2-1.1
		c1.4-0.3-0.1-0.7,1-1.3c0.7,0.6,0.4,1.2,0.3,1.8c1.6-0.1,1.1-1.5,1.6-2c-0.5-0.2,0-1.4-0.4-2.2c1.6,0.3,1-0.6,1.9-1
		c0.2-0.5-0.4-0.8-1-0.6c-1.7-0.2-1,2-2.8,1.3c0.8-0.2,0.5-1.2,0.5-1.7c-0.9,0-0.7,0.4-1.6,0c0.2-0.6-0.9-1.2,0.1-1.6
		c0.3,0.1,0.1,0.4,0.1,0.5c0.1-0.8,6.1,4.2,5.6,3.2c-0.8,0.3-5.6-4.4-5.6-3.9c-0.5,0.5-1.7-0.3-2,0.2L38.4,6c-0.3,0.7-2,0.9-2.6,0.7
		c0.1-1.1,6.4,3.2,5.4,2.2l-0.4,0.4c-0.6-0.4-1.1-1.5-0.2-1.9c-0.9,0-1.2-0.5-1.6-1l0.2-0.2c-0.5-0.5-0.2-1.1-1.5-0.8
		c0.1,2.7-9.4-1.8-9.9,0.9c2-1.1,2.1,0.4,2.3,1.5c-0.7,0.1-1.7,0.6-2.2,1.5c0.2,0.7,0.7,0.4,1.3,0.6c-0.5,0.4-0.8,1.2-1.9,1.1
		c1.3,0.6-0.8,0.9-0.4,1.6c0.6,0.6,0.6,0,1.2,0.4c-0.1,0.9-0.3,2.2-0.6,2.9c-1,0.3-2.8,1.1-4.4,0.5c0.2-1.4,2.5,0.5,2.2-0.9
		c-2.3,0.6-0.6-1.3-2.4-1.5c-1,0.5-1,1.4-0.8,2.1l0.3-0.2c0.3,0.7,0.8,2-0.4,2.8c-0.8-0.2-1.4,0.1-1.6-0.3l-0.2,0.9
		c0.3,0.1,0.5,0.2,0.7,0c0.6,0.4,0.3,0.9-0.2,1.2c-0.9,0.1,3.6,4.9,3.1,4.8c0,0.7-1.3,0.8-0.4,1.5c0.7,0.1-2.9-6.4-2.7-5.5
		c-0.9,0.6,4.3,7.6,2.7,8c0.1,0.5,0.2,1.1,1.1,1c-0.4,0.8-1.7-0.3-2.5,0.3c0.1,0,0.4,0,0.4,0.1l-1.1,0.6c1.3,1.3-0.4,3.2,1.4,4.6
		c-0.9-0.4-2.6-0.8-3.4-1.7l0.5-0.2c-0.3-0.1-0.6-0.8-1.4-0.8c-0.6,0.8-0.4,1.5,0.4,2.4c-0.2,0.2-0.5,0.4-0.7,0.5c0.1,0,0.2,0,0.3,0
		c-0.5,0.3-0.6,0.3-1,0.2c-0.1,0-0.1,0-0.2-0.1c-2.5,0.5,1.6,3.3,0.3,4.8c0.4,0.4,0.4,0,0.9,0.6c-1,1.6-1.8,2.6-2.4,4.2
		c1.1,0.5,1.5,0.6,2.7-0.1l-0.4,1.2c-2.9-1.1-2.8,2.3-5.7,1.1c-0.7,0.4-0.8,1.1-0.3,1.8c0.7,0.1,1.9,0.2,1.9,1
		c-1,1.2-0.6,0.9-1.6,1.9c-1,0.2-1.3-0.1-2.1-0.1c1.2,1.5-2.1,1.3-1.9,2.8C9,56.2,9.1,58,10.8,58C10.7,59.3,9.5,59.3,8.2,59.1z"/>
	<g>
		<path fill="#F3EBB6" d="M30.3,43c0,3.9-2,5.8-5.9,5.8h-4.7v-3.5h4.7c1.5,0,2.3-0.8,2.2-2.3l0-1c-0.4,0-0.9,0-1.4,0.2L20,43.7
			L19.8,43h-0.1v-0.3l-0.5-2.4l0.5-0.2v-0.7c0-3.9,2-5.9,5.9-5.9h4.7l0,3.5h-4.7c-1.5,0-2.3,0.7-2.4,2.1l1.1-0.3
			c2.5-0.7,4.5-0.5,6,0.8L30.3,43z"/>
		<path fill="#F3EBB6" d="M23.2,74.2v-13h-3.5v-3.5h3.5v-1.2h3.5v1.2h3.6v3.5h-3.6l0,11.7L23.2,74.2z"/>
		<path fill="#F3EBB6" d="M25.2,92.3h-1.4l0,4.8l-3.5,0V85.4h-1.2v-3.5h1.2v-1.2h3.5v1.2h7v3.5c0,2.9-0.7,4.8-2.2,5.9l3,5.8h-4
			L25.2,92.3z M23.8,88.9H25c1.6,0,2.4-1.2,2.4-3.5l-3.5,0L23.8,88.9z"/>
		<path fill="#F3EBB6" d="M20.6,121.2L20.6,121.2L20.6,121.2C20.6,121.2,20.6,121.2,20.6,121.2l-1.2-3.5c0.8-0.5,1.2-1.3,1.2-2.3
			v-5.8h-1.2V106h1.2v-1.2h3.5v1.2h6.6v15.2l-3.5,1.2l0-7h-3.1C24.1,118.2,22.9,120.2,20.6,121.2z M24.1,111.9h3.1v-2.4h-3.1V111.9z
			"/>
		<path fill="#F3EBB6" d="M23.2,146.6v-13h-3.5v-3.5h3.5V129h3.5v1.2h3.6v3.5h-3.6l0,11.7L23.2,146.6z"/>
		<path fill="#F3EBB6" d="M20.9,164.9v-7h-1.1v-3.5h1.1v-1.2h3.5v1.2h5.9v3.5h-5.9v2.4h5.9v3.5h-5.9v1.2c0,0.8,0.4,1.1,1.2,1.1h4.7
			v3.5h-4.7C22.4,169.5,20.9,168,20.9,164.9z"/>
		<path fill="#F3EBB6" d="M20.3,189v-7h-1.1v-3.5h1.1v-1.2h3.5v1.2h7v3.5h-7v7c0,0.8,0.4,1.1,1.2,1.1h2.3v-5.8h3.5v9.4H25
			C21.8,193.7,20.3,192.1,20.3,189z"/>
		<path fill="#F3EBB6" d="M30.8,212c0,3.9-1.9,5.8-5.8,5.8c-3.9,0-5.9-2-5.9-5.8v-3.5c0-3.9,2-5.9,5.9-5.9c3.9,0,5.8,1.9,5.8,5.8
			L30.8,212z M22.6,212c0,1.6,0.8,2.4,2.4,2.4c1.5,0,2.3-0.8,2.3-2.4l0-3.5c0-1.6-0.7-2.4-2.3-2.4c-1.6,0-2.4,0.8-2.4,2.3V212z"/>
	</g>
</g>
</svg>
