<?xml version="1.0" encoding="utf-8"?>
<!-- Generator: Adobe Illustrator 18.1.1, SVG Export Plug-In . SVG Version: 6.00 Build 0)  -->
<svg version="1.1" id="Calque_1" xmlns="http://www.w3.org/2000/svg" xmlns:xlink="http://www.w3.org/1999/xlink" x="0px" y="0px"
	 viewBox="0 0 72 72" enable-background="new 0 0 72 72" xml:space="preserve">
<g>
	<g>
		<g>
			<path fill="#003041" d="M54.3,62.7c0.7,0,1.2-0.1,1.9,0c1-0.4,2.3-1.2,3.5-1.9c1.2-0.8,2.3-1.5,3-1.5c0.2,0.2-1.2,3.4-1.8,3.7
				c-2.4,1.8-4.6,2.5-6.7,3.1c-2.2,0.5-4.4,1-7.3,1.6c-0.3,0-0.8,0.4-1.4,0.8c-0.6,0.5-1.5,0.9-2.3,1.4c0,0,0.6,0,1.2,0
				c-2.3,1.4-6.4,1.3-9.5,1.7c0.7,0.2,0.7,0.2,1.1,0.4c-0.6-0.2-1.5-0.5-2.4-0.6c-0.9-0.2-1.9-0.2-3-0.4c-1-0.2-2.2-0.3-3.2-0.5
				c-1.1-0.2-2.1-0.5-3-0.7c-0.7-0.4-1.1-0.7-1.6-1.1c-3.4-1.1-6.2-2.9-9.9-5.1c-1.5-1-3.1-2.5-4.5-4.3c-1.5-1.8-2.8-3.9-4.1-5.9
				c-1.9-3.6-3-7.8-3.5-11.9c-0.5-4.1-0.5-8.1-0.6-11.9c-0.1-0.6,0.1-1.5,0.4-2.5c0.2-0.5,0.3-1,0.6-1.5C1.3,25,1.6,24.5,2,24.1
				c-0.2-2.5,1.1-5.8,3.1-8.9c2-3.1,5-5.7,7.6-7.6c1.9-1.5,3.7-1.6,4.8-1.5c0.6-0.5,1.2-0.9,1.9-1.3c0.7-0.4,1.3-0.9,2-1.2
				c1.4-0.7,2.9-1.5,4.4-1.9C28.9,0.5,32.3,0,35.6,0C44-0.1,52.8,3.1,59.1,9.9c0.9,0.9,2.7,2.5,3.8,3.3l0.6,1.6
				c3.2,4.2,6.1,8.7,6.7,13.4c0.2,1.6,0.1,2.9-0.1,3.9c-0.2,1-0.6,1.7-1,2.3c-0.8,1.1-1.8,1.4-2.7,1.7c-0.7-3-2.2-5.8-3.9-8.5
				c-1.7-2.8-3.5-5.5-5.5-9.2c-1-2.1-4-4.2-6.5-5.5c-0.6-0.3-1.1-0.5-1.6-0.9c-0.5-0.3-1-0.7-1.6-1c-0.5-0.3-1.1-0.5-1.6-0.7
				c-0.6-0.1-1.2-0.2-1.7-0.1C43.8,10,43.5,9.7,43,9.4c-0.4-0.3-0.9-0.6-1.5-0.9c-1.1-0.6-2.4-1-3.9-1.4c-2.9-0.6-6.3-0.5-8.9,0.3
				c-0.5,0,0-0.3-0.8-0.3c-3.7,1.6-7.2,3.5-10.5,6.1c-3.2,2.6-6.2,5.9-7.9,9.9c-0.4,1-0.9,2-1.2,3.1c-0.2,0.6-0.4,1.1-0.6,1.7
				c-0.2,0.6-0.3,1.2-0.5,1.8c-0.2,0.6-0.3,1.2-0.4,1.8c-0.1,0.6-0.2,1.3-0.2,1.9c0,1.3-0.1,2.6,0.2,3.9c0.1,0.2,0,0.9,0,1.7
				c0,0.8,0.1,1.7,0.2,2.4c0.2,0.5,0.5,0.9,0.8,1.3c0.2,0.9,0.4,1.8,0.8,2.7C8.9,46,9,46.4,9.2,46.9c0.2,0.4,0.4,0.8,0.6,1.3
				c0.2,0.4,0.4,0.8,0.6,1.2c0.2,0.4,0.4,0.8,0.6,1.1c0.4,0.7,0.7,1.5,1,2.1c0.4,0.7,0.7,1.4,1.2,2c0.5,0.6,1,1.2,1.4,1.7
				c1.1,1,2.1,2,3.1,3c1.5,1.5,4,2.9,6.5,3.9c0.6,0.2,1.3,0.5,1.9,0.7c0.6,0.2,1.2,0.4,1.8,0.6c1.2,0.5,2.2,0.7,3.1,1.2
				c0.4,0.3,2,0.2,3,0.3c0.5,0.2,0.9,0.4,1.4,0.5c1,0,1.6-0.8,2.6-0.9c3.2-0.2,6.7-1.2,9.7-2.3c1.5-0.5,2.9-1.2,4.2-1.6
				c1.2-0.5,2.3-0.9,3.3-1C54.7,61.2,53.1,62.7,54.3,62.7z"/>
			<path fill="#003041" d="M71.5,38.5c0.3,0.3,0.4-0.9,0.4-1.6c-0.3,0.7-0.7,1-1.1,2.4l0.2-2.1c-0.7-1.1-0.3,2.1-0.5,0.8
				c0.1-1.2,0.3-2.1,0.7-1.5c-0.2,0.2-0.1,0.7-0.2,1.4c0.5,0.1,0.7-1,1.1-1.7l-0.2,3.4L71.5,38.5z"/>
			<path fill="#003041					
" d="M69.4,45.8l0.2-0.7c-0.2-0.4-0.6,0.2-0.9,0.8c1.2-2.7,0.9,0.2,1.9-1.4C70.3,44.4,69.6,46.1,69.4,45.8z"/>
			<path fill="#003041					
" d="M68.9,41.7c0.8-1.1,0.5-2.5,1.2-2.7c0,0-0.2,0.8-0.5,1.6c-0.3,0.8-0.6,1.6-0.6,1.6L68.9,41.7z"/>
			<path fill="#003041					
" d="M59.3,60.9c-0.6,0.8-0.3,0.4-1.5,1.4c0,0,0.4-0.4,0.9-0.8c0.2-0.2,0.4-0.4,0.6-0.5
				c0.2-0.1,0.3-0.2,0.3-0.2L59.3,60.9z"/>
			<path fill="#003041					
" d="M17,65.2c0.4,0.5,0.8,1,1.3,1.5c0.5,0.5,1.2,0.9,2.1,1.4c-1-0.5-1.8-1-2.4-1.6
				C17.5,65.9,17.1,65.4,17,65.2z"/>
			<path fill="#003041					
" d="M6,49.4c0.2-0.1,0-0.6,0.5,0.1c0.1,0.4-0.7,0.2,0.2,1.2L6,49.4z"/>
			<path fill="#003041					
" d="M6.6,47.5l0.1-0.9C6.6,46.6,6.5,47,6.6,47.5z"/>
			<path fill="#003041					
" d="M50.1,69.3l-0.2-0.1c-0.1,0.1-0.2,0.2-0.3,0.2C49.8,69.5,49.9,69.4,50.1,69.3z"/>
			<path fill="#003041					
" d="M46.9,70.2c0,0,0.6-0.1,1.2-0.1c0.6-0.1,1.2-0.2,1.2-0.2c0.1-0.1,0.3-0.2,0.4-0.4
				C48.2,70,48.5,69.3,46.9,70.2z"/>
			<path fill="#003041					
" d="M49.6,69.2l0.3,0.1c0.8-0.6,1.5-0.8,2.3-1c0.8-0.3,1.7-0.6,2.8-1.5c-1,0.4-2,0.8-2.9,1.2
				C51.2,68.4,50.3,68.8,49.6,69.2z"/>
			<path fill="#003041					
" d="M51.4,67.7c0,0,0.1-0.2,0.3-0.3c0.1-0.2,0.3-0.3,0.3-0.3c0.6-0.3,0.7,0,0.7,0.1l1.2-0.8
				c0.1-0.4-0.8,0-1.8,0.5c-1.1,0.5-2.4,1-2.9,1.2L51.4,67.7z"/>
			<polygon fill="#003041					
" points="58.8,56.4 58.8,56.4 58.8,56.4 			"/>
			<path fill="#003041					
" d="M55.4,58.1l0.5,0.7c1.2-1.1,1.7-1,2.9-2.5l0,0c-0.6,0-1,0.3-1.6,0.7c-0.3,0.2-0.5,0.4-0.8,0.6
				C56.1,57.9,55.8,58.1,55.4,58.1z"/>
			<path fill="#003041					
" d="M44.1,70.1c0.9-0.2,1.7-0.4,2.3-0.7c0.6-0.3,1-0.6,1.2-0.9c0,0-0.8,0.2-1.6,0.5c-0.8,0.3-1.7,0.4-1.7,0.4
				C45.7,69.4,44.3,69.7,44.1,70.1z"/>
			<path fill="#003041					
" d="M41,69.1c0,0,0.4-0.1,0.8-0.2c0.4-0.1,0.8-0.2,0.8-0.2l-0.7-0.1C41.7,68.8,41.5,69,41,69.1z"/>
			<path fill="#003041					
" d="M41.8,68.7c0-0.2-0.2-0.2-0.8-0.2C41,68.5,41.8,68.7,41.8,68.7z"/>
			<path fill="#003041					
" d="M44.6,67.2c-1.1-0.3-0.8,0.3-2.5,0.6C42.1,68.5,43.8,67.5,44.6,67.2z"/>
			<polygon fill="#003041					
" points="37.6,68.3 37,67.9 37,68.5 			"/>
			<path fill="#003041					
" d="M24.4,69.5c0.9,0,0.7-0.2,0.3-0.5c-0.4-0.3-1.1-0.6-1.1-0.8L24.4,69.5z"/>
			<path fill="#003041					
" d="M35.7,67l0.5,0.5l0.3-0.3c0.4,0,1-0.1,1.4,0.1C38.2,66.7,36.5,67.1,35.7,67z"/>
			<path fill="#003041					
" d="M29.3,68c0,0-0.4-0.2-0.8-0.3c-0.4-0.2-0.7-0.4-0.7-0.4"/>
			<path fill="#003041					
" d="M39.1,64.6c0-0.2-2.2-0.7,0.2-0.8c-0.9,0.1-2.2,0.3-1.4-0.3c-1.5,0.1,0,0.6-1,1
				C37.7,64.1,38.4,64.6,39.1,64.6z"/>
			<path fill="#003041					
" d="M35.4,64.4c-0.7-0.1-1.6-0.4-2-0.1C34.1,64.3,34.8,64.9,35.4,64.4z"/>
			<path fill="#003041					
" d="M34.7,63c0,0,0.2,0.1,0.5,0.2c0.3,0.1,0.5,0.2,0.5,0.2l-0.6-0.6C35.1,62.9,34.7,63,34.7,63z"/>
			<line fill="#003041					
" x1="19.4" y1="63" x2="19" y2="63.7"/>
			<path fill="#003041					
" d="M30.7,62.6c0,0,0.6,0.1,1.2,0.2c0.6,0,1.3,0,1.3,0s-0.6-0.1-1.1-0.2c-0.5-0.2-1.1-0.3-1.1-0.3
				c-1.4,0.2-0.8,0.5,0.2,0.8C30.9,62.9,30.7,62.8,30.7,62.6z"/>
			<path fill="#003041					
" d="M33.2,63.9l0.8-0.2c0-0.1-1.1-0.2-2.1-0.4C32.6,63.5,33.2,63.7,33.2,63.9z"/>
			<path fill="#003041					
" d="M31.9,63.3c-0.3-0.1-0.5-0.2-0.8-0.3C31.3,63.2,31.6,63.3,31.9,63.3z"/>
			<path fill="#003041					
" d="M13.4,59c0,0,0.5,0.5,1,0.9c0.5,0.5,1,0.9,1,0.9C14.7,60.2,14.2,59.5,13.4,59z"/>
			<path fill="#003041					
" d="M29,61.6l-0.3-0.1l-0.2,0.6C29.2,62.1,29,61.7,29,61.6z"/>
			<path fill="#003041					
" d="M26.6,59.6c-0.4-0.6-1.7-0.6-2.2-0.8c0.5,0.8,1.3,1,2.2,1.5C25.7,59.8,26.5,59.9,26.6,59.6z"/>
			<path fill="#003041					
" d="M24.3,57.8c0,0,0.4,0.2,0.9,0.4c0.2,0.1,0.4,0.2,0.6,0.3c0.2,0.1,0.3,0.1,0.3,0.1c0-0.4-0.3-0.5-0.6-0.5
				C25.1,58,24.7,58,24.3,57.8z"/>
			<path fill="#003041					
" d="M21.5,56.5c-0.2,0-0.2,0.2-0.5,0.1c0.1,0.4,0.7,0.6,1.1,0.9L21.5,56.5z"/>
			<path fill="#003041					
" d="M38,66.6c-0.7,0.1-1.4,0.1-2,0.2c1,0.1,2,0.2,3,0.2C38.7,66.8,38.4,66.7,38,66.6z"/>
			<path fill="#003041					
" d="M68.6,20.7c-1.3-1.5-2.8-3.7-4.5-5.7c-0.9-1-1.7-2-2.6-2.8c-0.4-0.4-0.8-0.8-1.2-1.2
				c-0.4-0.4-0.8-0.7-1.2-1c-2.2-2.2-5.2-4-8.5-5.3c-3.3-1.4-6.9-2.1-10.3-2.5l0.1-0.2c-0.7-0.1-1.4-0.3-2.1-0.4
				c-0.7-0.1-1.5-0.1-2.2-0.1c-1.5-0.1-3.1,0.1-4.7,0.2c-3.2,0.5-6.3,1.3-9.1,2.5l0.4,0.2c1-0.3,2.2-0.7,1.6,0C23,4.6,21.3,5,20.9,5
				l-0.7,0.9c-0.4,0.1-0.6-0.2-0.9-0.4c-0.3-0.1-0.8-0.2-1.7,0.6C17.2,7,15.9,7.4,14.9,8c-1,0.6-1.9,1.1-1.5,1.6
				c-0.6-0.1-1.2,0.5-1.8,1.1c-0.6,0.6-1.1,1.3-1.5,1.7l1-0.1c-0.9,0.7-2,1.4-2.8,2c-0.8,0.6-1.5,1.2-1.8,1.8
				c-1.6,2.5-3.6,6.3-4.2,9.5c-1,0.5,1.2-3.2-0.3-1.5c-0.3,1.6-0.5,3.3-1,5.1c-0.3,1.8-0.7,3.7-0.8,5.6C-0.2,38.7,0,43,1.5,46.5
				c0-0.2-0.1-0.9,0.1-0.5c-0.1,0.8,0.2,1.6,0.6,2.5c0.3,0.9,0.9,1.9,1.3,3.1c0.1-0.3-0.1-1.1-0.5-2.1c-0.3-1-0.6-2-0.8-2.5
				C3,47.3,3,47.4,2.9,47.9c0,0.5-0.1,1.3,0.8,2.6c0-0.2-0.1-0.7,0-0.7c1.6,2.6-0.2,1.4,1.1,3.4c0,0-0.1-0.3-0.2-0.6
				c-0.1-0.3-0.1-0.7-0.1-0.7c1,2,0.5,0.6,2,2.6c-0.8,0-0.6,1.4-0.2,2c0.4,0.1,1.7,2.2,2,1.5c0.5,1.6,1.3,2.3,2,2.9
				c0.8,0.6,1.5,1.2,2.3,2.6c0.7,0.2,0.5-0.1,0.3-0.5c-0.3-0.4-0.6-0.9-0.4-1.1c2.6,1.6,0.3,1.2,1.1,2c0.9,0.5,4.3,2.5,5.7,3.6
				l0.3-0.4c0.5,0.4,1.2,0.9,1.9,1.2c0.7,0.4,1.5,0.7,2.2,1.1c1.4,0.7,2.7,1.2,3.1,1.6c1.2-0.4-0.8-0.9-2.6-1.4
				c-0.3-0.4,1.6-0.2,2.5,0.2c-0.4-0.1-0.5-0.5-1.1-0.4c0-0.5,1.2,0.1,1.7,0.1c1.5,0.4,1.2,0.4,0.7,0.4c-0.5,0-1.3-0.1-0.7,0.2
				c1.2,0.1,4.1,0.6,3-0.2c1.2,0.2,1.5,0.3,1.5,0.6c0.1,0.2,0,0.5,0.7,0.6c-1-0.3-1.6-0.2-2.3-0.2c-0.6,0-1.2,0-1.9-0.4
				c-0.6,0.2-0.4,0.4,0.2,0.7c2.1,0.3,6.3,1,6.2,0.3c0,0,0.3,0.1,0.5,0.2c0.3,0.1,0.5,0.2,0.5,0.2l1-0.5l0.4,0.1
				c-0.5-0.3-1.3-0.5-2-0.8c-0.7-0.2-1.4-0.5-1.8-0.9c-0.1-0.3,1.2-0.1,1.8-0.2l0.6,0.5c0.9,0,1.2-0.2,1.6-0.5
				c0.4-0.3,0.9-0.5,2.1-0.6c-1.4,0.9,2.8,0.8,4.6,0.7c1.5-1.7-0.5-0.9,0.7-2.4c0.8-0.3,1.9-0.7,2.9-1.2c1-0.5,2.1-1,3.1-1.3
				c-2.2,1.2-1.6,1.1-0.8,1c0.8-0.1,1.8-0.2,0,0.9c0.9-0.2,1.4-0.8,2.2-1.2c1.1,0.5-0.8,1.4,0.7,1.4l0-0.8c0.7-0.1,1.3-0.1,2-0.2
				c0.7-0.2,1.5-0.5,2.7-1.2c0.1-0.4,0.8-1.6,1.8-2.2c0.6,0.1,1,0.2,2.6-1.6c1.1-2.2,0-1.6-1.6-0.5c-0.7,0.6-1.7,1.1-2.5,1.5
				c-0.8,0.4-1.5,0.7-1.9,0.6c-2.6,1.8-4.5,1.8-6.4,1.9c-1,0-2-0.1-3.1,0c-0.6,0-1.2,0-1.9,0.1c-0.3,0-0.7,0.1-1.1,0.2
				c-0.4,0-0.8,0.1-1.2,0.2c-0.5,0.3-0.6,0.5-0.9,0.7c-0.3,0.2-0.7,0.4-1.7,0.6c-0.6,0.6,0.2,0.8,1.3,0.8c1.1-0.1,2.6-0.3,3.4-0.2
				c-0.6,0.4-1.2,0.7-1.9,0.7l0.9,0.6c-3.4,1.2-2.1-0.7-5.1,0.2l0.7-0.3c0,0-0.4,0.1-0.9,0.2c-0.2,0.1-0.4,0.1-0.6,0.1
				c-0.2,0-0.3,0-0.3,0l0.4,0.1c-1.1,0.1-1.4,0.7-3.1,0.5l1.4-0.5c-0.9,0.4-1.2-0.4-2.5-0.3c0.7-0.3,1-0.6,1.4-0.6
				c-1.9-0.4-3.6-0.5-5.2-0.9c-5.6-0.5-10.7-3.3-14.4-7.1c0.1,0.2,0.3,0.5,0.3,0.6c-0.9-0.4-1.1-1.1-1.3-1.7l-0.9-1.1L12.8,56
				c-0.4-0.4-0.7-0.7-1.1-1.1c-0.3-0.4-0.6-0.8-0.9-1.2C10.2,53,9.6,52.1,9,51c0.3-0.3,0.5-0.2,0.6,0c-0.5-0.7-0.9-1.2-0.8-0.2
				c-0.9-1.4-0.8-2.2-1.3-3.3c0,0,0.1,0.1,0.3,0.3c0.2,0.2,0.4,0.5,0.6,0.7c0.4,0.5,0.9,1,0.9,1C9,48.6,8.3,49,7.9,47.5
				c-0.5-1.1-0.6-0.8-0.6-0.2c0,0.6,0.1,1.4-0.2,1.4c0,0-0.4-0.9-0.3-0.9c0,0-0.3,1.3-0.3,1.3c-0.4-1-0.4-1.9-0.4-2.6
				c0-0.7,0.1-1.2,0.2-1.7c0,0,0.2,1.5,0.2,1.5c0.5,0.1,0.3-0.5,0-1.2c-0.2-0.8-0.5-1.7-0.3-2.1l0.1,0.2c-0.5-2.3-0.3,0.6-0.8-0.9
				l0.3-2.9l-0.5,0.5c-0.3-0.8-0.2-2-0.1-3.4c0.1-0.7,0.3-1.4,0.4-2.1c0.1-0.7,0.2-1.4,0.4-2c0.2-0.7,0.2-1.6,0.3-2.6
				c0.2-0.9,0.2-2,0.5-2.9c-0.3,0.3-0.6,1-0.7,0.7c0.4-1.1,1.3-3.5,1.5-2.5c0,0,0.3-1.7,0.3-1.7c0.2-0.5,0.5-0.9,0.8-1.2l-0.4,0.3
				c0,0,0-0.1,0.1-0.3c0.1-0.2,0.2-0.4,0.3-0.6c0.2-0.5,0.4-0.9,0.4-0.9c0.1,0.1,0.7-0.4,0.2,0.5c0.4-0.4,0.8-0.9,1.1-1.4
				c0.4-0.5,0.7-1.1,1-1.7c0.3-0.6,0.8-1.3,1.3-1.9c0.5-0.6,1-1.3,1.8-1.8L14,15.2c1.2-1.7,2-1.2,3.5-2.8l-0.7-0.1
				c1.1-1.3,4.1-2.2,3.9-1.7c-0.4-1.1,0.9-0.1,1.4-1.4l1.3,0.5c0.8-0.7,1.7-1.1,0.9-1.4c0.9-0.1,1.6-0.2,2.2-0.4
				c0.6-0.2,1.1-0.4,1.5-0.9c0,0,0,0,0,0l0,0l0,0c0.3-0.2,2-0.3,1.2-0.6c3.8-0.6,2.1,0.6,5.6,0.4l0.1-0.7c1.4,0.2,2.8,0,4.1,0.1
				c0.7,0,1.3,0,1.9,0c0.6,0,1.2,0,1.7,0.1l0.1,0.7c0.7,0.1,0.7-0.1,0.8-0.2c0.1-0.1,0.3-0.3,1.4,0.1c0.3,0.2,0.5,0.5,0.4,0.6
				c2.1,0.6,4.6,2.3,7.2,4.2c-0.1,0.1-0.5-0.1-0.7-0.2c0.6,0.4,1.3,0.9,2.2,1.4c0.8,0.6,1.6,1.1,2.3,1.6c2.1,3.4,4.3,8.1,6,12.6
				c2.6,3,4.6,5.6,6.4,5.8c0.5-0.6,0.9-2.1,1.1-4.2c0-1.1,0-2.3-0.1-3.6c-0.1-0.7-0.2-1.4-0.4-2.1C69.1,22.2,68.9,21.4,68.6,20.7z"
				/>
		</g>
	</g>
</g>
</svg>
