<?xml version="1.0" encoding="utf-8"?>
<!-- Generator: Adobe Illustrator 18.1.1, SVG Export Plug-In . SVG Version: 6.00 Build 0)  -->
<svg version="1.1" id="Calque_1" xmlns="http://www.w3.org/2000/svg" xmlns:xlink="http://www.w3.org/1999/xlink" x="0px" y="0px"
	 viewBox="0 0 48 240" enable-background="new 0 0 48 240" xml:space="preserve">
<g>
	<path opacity="0.78" fill="#8A201D" d="M40.6,54.1l0.2,1c0.1-3.2-0.5-6.6-1.1-9.9c5.7,7.3,10.7,15.8-1.4,21.4
		c6.4,0.6,9.4,7.6,7.8,7.8c-1.2,1.5-2.1,2.9-2.9,4.4c0.5-1,1-2.1,1.6-3.1c-0.6,1-1.1,2-1.6,3.1c-5,9.5-2.8,19.7-0.3,30.4
		c1.2,5.9,2.6,21.9,4.5,28c0.2,0.9,0.5,1.7,0.6,2.6c-0.6-1.5-0.6-1.5-1.2-2.9c-1.7,3.7-3.4,7-4.5,10.3c-0.9-0.6-1.8-0.7-3.1-2
		l0.6,1.6c-2.7,1.5-2.6,5-3.7,6.6c1.4-0.4,1.7,0.9,1.9,2.1l-0.9-0.4c0.6,4.3-0.6,9.3-0.4,13.1c0,0.5,0.5,0.9,1,1.2l-1.1,3.7
		c1.9-0.3,1.6,3.1,2.8,1.3c-2.2,2.8-0.9,5.6-3.2,8.2c-0.3,9.4-1.7,19.4-4.8,29.1l-0.7-0.2c-1.2,3.4-4.9,6.4-3.7,10.5
		c-2.5,3-3.8,7.1-7.7,8.3c-0.5,3.4-2.5,4.8-3.5,8.1c-1.9-0.9-2.3,3.2-3.8,1.6c-2.7-2.2-0.4-2.3-2.6-4.2l0.7,0.1
		c-2.9-8.8-4.6-17.6-5.5-26.5c1.6-5.9,0.3-12.4,0.8-18.5c0.7-6.6,2-13.8,3.6-19.5c0.6-1.4-1.1-2.3-2-3.5c0.9-5.2,0.2-11.9,1.3-17.8
		c0,0.1,0,0.2,0.1,0.3c0.3-3.1-1.7-5.5-1.3-8.6c0.6,0,0.6-0.5,0.9-0.7c-2.6-0.5,5.3-18.1,3.9-19.1c0.1-0.3,0.2-0.6,0.3-1
		c-1.2-6.5-6.2-13.2-5.7-18.7c1.2-1.2,2.3-2.6,3.6-3.6c-1.1-1,1-1.2,0.7-2.4c-5.2-3-3-4.8-1.2-3.2c0.7-2.5,0.2-5,0.4-7.2
		c0.4-1,0.8-2,1.2-3.1c0.4-0.9-0.3-1.4-1.6-1.8c0.7-2.2-0.5-1.6-1.1-3.9c-1.8-0.6,2.9-5.9,2.3-6.5l-0.3,0.4c-0.3-2.7-3.8-4.5-4-7.2
		c-1.3-7.4,0-15.4-0.6-22.2C8,41.4,5.7,42.9,8.2,43c-0.3-4-2.7-8.1-3-12.1c-0.5-0.7-1.5-1.6-2.1-2c-0.7-1.3,0.9-0.8,0.7-1.7
		l-1.7-0.1c1.4-1.4-1.9-2-1.2-3.3c0.7-0.1,0.8-0.5,0.7-1c-1.8,0,0.1-1.4-1.5-1.4l0.1,0c0-0.3,0.1-0.5-0.2-0.8c0.6-0.5,5.6-5.5,6.4-6
		l-0.3-0.3c0.1-0.7,1.4-1.1,1.7-0.6l-0.1-0.9l-0.1,0.1l-0.1-0.9c-0.2-0.2-1-0.4-1.8-0.1c0.6-0.5,1-1.1,0.6-1.6
		c1.1,1.4,2.7,3.2,4.5,4.7c0.6-0.6-0.3-1.7-0.1-2.4c-1.2-0.8-2.2-2.4-3-3.7c0.1-0.3,2.1-0.5,1.2-1.1C7.5,7.4,8.9,7,7.9,6.4
		C7.2,7,7.5,7.6,7.6,8.2C5.9,8.1,6.5,6.7,6,6.3C6.5,6,6,4.8,6.4,4.1c-1.6,0.3-1-0.6-1.9-1C4.4,2.5,5,2.2,5.6,2.4
		c1.7-0.2,1,2,2.8,1.3C7.6,3.5,7.9,2.5,7.9,2c0.9,0,0.7,0.4,1.6,0c-0.2-0.6,0.9-1.2-0.1-1.6C9.2,0.6,9.4,0.8,9.4,1
		C9.3,0.2,3.3,5.2,3.9,4.2c0.8,0.3,5.6-4.4,5.6-3.9c0.5,0.5,1.7-0.3,2,0.2L10.4,1c0.3,0.7,2,0.9,2.6,0.7c-0.1-1.1-6.4,3.2-5.4,2.2
		L8,4.3c0.6-0.4,1.1-1.5,0.2-1.9c0.9,0,1.2-0.5,1.6-1L9.6,1.2C10,0.8,9.8,0.1,11,0.4c-0.1,2.7,9.4-1.8,9.9,0.9
		c-2-1.1-2.1,0.4-2.3,1.5c0.7,0.1,1.7,0.6,2.2,1.5c-0.2,0.7-0.7,0.4-1.3,0.6c0.5,0.4,0.8,1.2,1.9,1.1c-1.3,0.6,0.8,0.9,0.4,1.6
		c-0.6,0.6-0.6,0-1.2,0.4c0.1,0.9,0.3,2.2,0.6,2.9c1,0.3,2.8,1.1,4.4,0.5c-0.2-1.4-2.5,0.5-2.2-0.9c2.3,0.6,0.6-1.3,2.4-1.5
		c1,0.5,1,1.4,0.8,2.1l-0.3-0.2c-0.3,0.7-0.8,2,0.4,2.8c0.8-0.2,1.4,0.1,1.6-0.3l0.2,0.9c-0.3,0.1-0.5,0.2-0.7,0
		c-0.6,0.4-0.3,0.9,0.2,1.2c0.9,0.1-3.6,4.9-3.1,4.8c0,0.7,1.3,0.8,0.4,1.5c-0.7,0.1,2.9-6.4,2.7-5.5c0.9,0.6-4.3,7.6-2.7,8
		c-0.1,0.5-0.2,1.1-1.1,1c0.4,0.8,1.7-0.3,2.5,0.3c-0.1,0-0.4,0-0.4,0.1l1.1,0.6c-1.3,1.3,0.4,3.2-1.4,4.6c0.9-0.4,2.6-0.8,3.4-1.7
		L29,28.8c0.3-0.1,0.6-0.8,1.4-0.8c0.6,0.8,0.4,1.5-0.4,2.4c0.2,0.2,0.5,0.4,0.7,0.5c-0.1,0-0.2,0-0.3,0c0.5,0.3,0.6,0.3,1,0.2
		c0.1,0,0.1,0,0.2-0.1c2.5,0.5-1.6,3.3-0.3,4.8c-0.4,0.4-0.4,0-0.9,0.6c1,1.6,1.8,2.6,2.4,4.2c-1.1,0.5-1.5,0.6-2.7-0.1l0.4,1.2
		c2.9-1.1,2.8,2.3,5.7,1.1c0.7,0.4,0.8,1.1,0.3,1.8c-0.7,0.1-1.9,0.2-1.9,1c1,1.2,0.6,0.9,1.6,1.9c1,0.2,1.3-0.1,2.1-0.1
		c-1.2,1.5,2.1,1.3,1.9,2.8C39.7,51.2,39.6,53,38,53C38,54.3,39.3,54.3,40.6,54.1z"/>
</g>
</svg>
